<svg width="256" height="256" viewBox="0 0 256 256" fill="none" xmlns="http://www.w3.org/2000/svg">
<path fill="url(#robot-gradient)" fill-rule="evenodd" d="M124.61 47.97C126.56 47.7 129.58 47.67 131.6 47.97C133.62 48.28 135.33 48.8 136.74 49.82C138.15 50.85 139.38 53 140.03 54.14C140.68 55.27 140.58 55.51 140.66 56.63C140.73 57.74 136.76 60.02 140.49 60.82C144.22 61.63 157.98 61 163.04 61.45C168.09 61.89 168.51 62.68 170.83 63.5C173.15 64.32 175.02 65.27 176.96 66.36C178.9 67.45 180.7 68.6 182.47 70.04C184.24 71.47 185.72 72.57 187.6 74.96C189.47 77.35 192.29 81.59 193.72 84.35C195.15 87.11 195.6 89.08 196.19 91.53C196.77 93.99 197.04 94.62 197.21 99.09C197.38 103.55 197.48 113.39 197.21 118.33C196.93 123.27 196.46 125.57 195.57 128.74C194.69 131.91 193.35 134.73 191.89 137.35C190.42 139.98 188.79 142.28 186.78 144.5C184.77 146.71 182.27 148.91 179.81 150.65C177.36 152.39 174.48 153.84 172.06 154.93C169.64 156.03 167.84 156.61 165.28 157.19C162.72 157.77 167.67 158.21 156.71 158.42C145.74 158.62 110.15 158.55 99.5 158.42C88.84 158.28 95.62 158.32 92.76 157.6C89.89 156.88 85.38 155.52 82.31 154.12C79.24 152.72 76.7 151.03 74.35 149.22C72 147.41 70.14 145.69 68.2 143.27C66.25 140.85 63.95 136.98 62.69 134.7C61.42 132.41 61.25 131.67 60.63 129.56C60.02 127.44 59.27 127.59 59 122C58.73 116.41 58.52 102.1 59 96.03C59.48 89.95 60.57 88.75 61.87 85.58C63.16 82.41 65.1 79.35 66.77 77C68.44 74.65 70.4 72.9 71.9 71.46C73.4 70.03 73.25 69.83 75.78 68.4C78.3 66.97 83.67 64.1 87.04 62.88C90.42 61.65 91.25 61.38 96.03 61.04C100.8 60.7 112.43 61.69 115.71 60.82C119 59.95 115.54 57.2 115.75 55.81C115.96 54.42 116.3 53.54 116.99 52.5C117.68 51.47 118.6 50.38 119.87 49.62C121.14 48.87 122.65 48.25 124.61 47.97ZM102.15 103.3C103.93 103.09 106.34 103.23 108.12 103.71C109.91 104.19 111.35 104.84 112.85 106.17C114.36 107.5 116.31 110.33 117.17 111.71C118.02 113.08 117.93 113.42 118 114.4C118.06 115.37 118 116.78 117.58 117.55C117.15 118.32 116.21 118.84 115.47 119.02C114.73 119.19 113.77 118.91 113.14 118.6C112.5 118.28 112.13 118.05 111.68 117.14C111.23 116.23 110.92 114.08 110.43 113.14C109.95 112.19 109.36 111.93 108.77 111.48C108.18 111.03 107.8 110.68 106.9 110.44C106 110.2 104.55 109.9 103.37 110.04C102.2 110.17 100.76 110.76 99.87 111.27C98.97 111.79 98.52 112.19 98 113.14C97.48 114.08 97.2 116.03 96.75 116.94C96.3 117.85 95.9 118.25 95.3 118.6C94.7 118.94 93.77 119.05 93.17 119.02C92.57 118.98 92.12 118.7 91.7 118.39C91.28 118.08 90.86 117.77 90.65 117.14C90.44 116.51 90.03 116.02 90.44 114.6C90.85 113.19 91.94 110.25 93.1 108.64C94.27 107.03 95.91 105.84 97.42 104.94C98.92 104.05 100.37 103.5 102.15 103.3ZM100.36 86.76C89.77 87 95.49 87.32 93.13 88.2C90.77 89.09 88.2 90.48 86.19 92.08C84.18 93.69 82.53 95.4 81.06 97.82C79.59 100.25 78.05 103.63 77.37 106.64C76.69 109.65 76.76 113.21 76.96 115.88C77.17 118.55 77.48 120.2 78.61 122.65C79.73 125.11 81.57 128.37 83.71 130.62C85.86 132.87 88.7 134.85 91.5 136.15C94.3 137.45 89.44 138.07 100.52 138.41C111.59 138.75 147.27 138.55 157.93 138.21C168.6 137.86 162.59 137.14 164.5 136.36C166.42 135.57 167.94 134.59 169.4 133.5C170.87 132.41 172.01 131.4 173.31 129.8C174.6 128.2 176.2 126.06 177.19 123.88C178.18 121.69 178.9 119.26 179.24 116.7C179.58 114.13 179.48 110.81 179.24 108.48C179 106.15 178.82 104.98 177.8 102.72C176.78 100.47 174.54 96.84 173.1 94.97C171.67 93.09 170.6 92.5 169.2 91.47C167.8 90.45 166.79 89.6 164.71 88.82C162.63 88.03 167.43 87.1 156.71 86.76C145.98 86.42 110.96 86.52 100.36 86.76ZM150.12 103.3C152.01 103.02 154.01 103.13 155.89 103.71C157.78 104.29 159.87 105.28 161.44 106.78C163.02 108.28 164.7 110.93 165.35 112.73C166 114.52 165.7 116.5 165.35 117.55C165 118.6 163.98 118.84 163.24 119.02C162.5 119.19 161.5 118.88 160.91 118.6C160.31 118.32 160 118.09 159.66 117.35C159.31 116.61 159.23 115.07 158.81 114.16C158.4 113.25 157.95 112.54 157.15 111.89C156.36 111.23 155.06 110.55 154.05 110.24C153.05 109.93 152.15 109.9 151.15 110.04C150.14 110.17 148.84 110.65 148.04 111.07C147.25 111.48 147.15 111.3 146.39 112.52C145.62 113.74 144.21 117.31 143.48 118.39C142.75 119.47 142.68 119.02 142.01 119.02C141.34 119.02 140.07 118.7 139.47 118.39C138.87 118.08 138.63 117.71 138.42 117.14C138.21 116.58 137.83 116.36 138.21 115.01C138.58 113.66 139.61 110.66 140.67 109.05C141.73 107.44 143 106.31 144.57 105.35C146.15 104.39 148.24 103.57 150.12 103.3ZM91.94 165.36C104.48 165.25 151.49 165.25 164.06 165.36C176.63 165.46 166.53 165.67 167.36 165.98C168.19 166.3 168.64 166.36 169.02 167.23C169.4 168.1 171.93 165.16 169.65 171.2C167.37 177.25 158.44 196.96 155.34 203.5C152.24 210.04 152.73 208.46 151.06 210.44C149.38 212.41 147.43 214.03 145.31 215.36C143.19 216.7 140.18 217.79 138.33 218.44C136.49 219.09 136.68 219.08 134.25 219.25C131.83 219.42 126.66 219.63 123.79 219.46C120.92 219.29 119.2 218.92 117.05 218.23C114.9 217.55 112.87 216.66 110.89 215.36C108.91 214.06 106.58 211.94 105.15 210.44C103.72 208.94 105.35 212.76 102.29 206.35C99.23 199.95 89.42 178.23 86.76 172.02C84.11 165.81 86.32 169.87 86.35 169.11C86.39 168.35 86.56 167.96 86.98 167.44C87.39 166.92 88.01 166.33 88.84 165.98C89.67 165.64 79.41 165.46 91.94 165.36ZM72.75 169.65C74.6 169.41 75.91 169.57 76.89 169.85C77.86 170.13 74.18 161.92 78.58 171.32C82.98 180.71 99.06 216.49 103.29 226.23C107.51 235.98 104.05 228.85 103.91 229.79C103.77 230.74 103.69 231.54 102.44 231.9C101.2 232.25 98.6 232.25 96.43 231.91C94.27 231.57 94.36 232.27 89.45 229.86C84.55 227.44 71.49 219.96 67 217.4C62.51 214.85 64.01 215.71 62.51 214.55C61.01 213.38 59.53 212.35 57.99 210.44C56.46 208.53 54.35 205.17 53.3 203.09C52.24 201.01 51.99 199.9 51.65 197.95C51.31 195.99 51.14 193.31 51.24 191.36C51.34 189.41 51.75 187.93 52.26 186.26C52.77 184.58 53.36 182.96 54.32 181.32C55.27 179.68 56.8 177.72 57.99 176.42C59.19 175.12 60.19 174.39 61.49 173.54C62.78 172.68 63.9 171.94 65.77 171.29C67.65 170.64 70.9 169.89 72.75 169.65ZM180.54 169.65C181.88 169.61 184.19 169.54 186.31 170.05C188.43 170.57 191.44 171.77 193.29 172.72C195.13 173.68 196.04 174.49 197.37 175.78C198.7 177.08 200.21 178.79 201.28 180.5C202.34 182.22 203.16 184.24 203.74 186.05C204.32 187.86 204.66 189.38 204.76 191.36C204.86 193.34 204.66 196.06 204.35 197.95C204.04 199.83 203.9 200.67 202.91 202.68C201.92 204.69 200.5 207.71 198.42 210.03C196.34 212.35 195.57 213.35 190.43 216.59C185.29 219.82 172.88 226.86 167.57 229.45C162.25 232.04 160.85 231.71 158.55 232.11C156.24 232.52 154.8 232.22 153.76 231.9C152.72 231.58 152.4 231.25 152.29 230.2C152.19 229.15 148.9 235.47 153.12 225.62C157.34 215.77 173.43 180.34 177.62 171.11C181.81 161.89 177.77 170.52 178.26 170.27C178.75 170.03 179.2 169.68 180.54 169.65ZM126.85 23.68C128.16 23.47 129.37 23.58 130.58 23.89C131.78 24.19 133.02 24.74 134.09 25.53C135.15 26.32 136.25 27.42 136.97 28.62C137.69 29.82 138.21 31.43 138.41 32.74C138.62 34.05 138.62 35.09 138.21 36.47C137.8 37.84 136.74 39.9 135.95 41C135.16 42.09 134.57 42.48 133.47 43.06C132.37 43.65 130.66 44.3 129.35 44.5C128.04 44.71 126.9 44.64 125.63 44.3C124.35 43.96 122.74 43.17 121.71 42.45C120.68 41.73 120.09 41.14 119.44 39.97C118.79 38.81 118.03 36.85 117.79 35.44C117.55 34.04 117.69 32.75 118 31.52C118.31 30.28 118.85 29.07 119.64 28.01C120.43 26.94 121.53 25.84 122.73 25.12C123.93 24.4 125.54 23.89 126.85 23.68ZM200.96 91.46C201.84 91.48 204.13 91.5 205.74 92.08C207.36 92.66 209.24 93.75 210.64 94.94C212.04 96.14 213.25 97.51 214.14 99.25C215.03 101 215.68 102.58 215.99 105.42C216.3 108.26 216.33 113.48 215.99 116.29C215.64 119.09 215.06 120.4 213.93 122.25C212.8 124.09 210.99 126.14 209.21 127.37C207.43 128.61 204.71 129.34 203.25 129.63C201.8 129.93 200.94 135.43 200.47 129.15C200.01 122.87 200.39 98.22 200.47 91.94C200.55 85.66 200.08 91.43 200.96 91.46ZM52.95 91.87C54.48 91.5 55.1 86.07 55.53 92.35C55.96 98.63 55.61 123.27 55.53 129.56C55.45 135.84 55.92 130.06 55.04 130.04C54.16 130.02 51.84 129.96 50.26 129.42C48.68 128.87 46.89 127.86 45.56 126.76C44.23 125.67 43.2 124.67 42.27 122.86C41.35 121.04 40.39 118.72 40.01 115.88C39.64 113.04 39.7 108.53 40.01 105.82C40.32 103.12 40.8 101.54 41.86 99.66C42.92 97.78 44.53 95.83 46.38 94.53C48.23 93.23 51.43 92.23 52.95 91.87Z"/>
<defs>
<linearGradient id="robot-gradient" x1="0" y1="0" x2="256" y2="256" gradientUnits="userSpaceOnUse">
<stop offset="0" stop-color="#4077EA"/>
<stop offset="0.35" stop-color="#4863DA"/>
<stop offset="0.7" stop-color="#4043A7"/>
<stop offset="1" stop-color="#2D3275"/>
</linearGradient>
</defs>
</svg>
